<svg width="21" height="20" viewBox="0 0 21 20" fill="none" xmlns="http://www.w3.org/2000/svg">
<path fill-rule="evenodd" clip-rule="evenodd" d="M0.5 10C0.5 5.28595 0.5 2.92893 1.96447 1.46447C3.42893 0 5.78595 0 10.5 0C15.214 0 17.5711 0 19.0355 1.46447C20.5 2.92893 20.5 5.28595 20.5 10C20.5 14.714 20.5 17.0711 19.0355 18.5355C17.5711 20 15.214 20 10.5 20C5.78595 20 3.42893 20 1.96447 18.5355C0.5 17.0711 0.5 14.714 0.5 10ZM8.50398 3.7517C8.91818 3.7495 9.25219 3.41194 9.24999 2.99773C9.24779 2.58353 8.91023 2.24952 8.49602 2.25172C7.41427 2.25745 6.51583 2.28215 5.78261 2.41042C5.03075 2.54195 4.38786 2.79244 3.86144 3.29379C3.40634 3.72721 3.10191 4.16616 2.93626 4.79676C2.78612 5.36833 2.75937 6.07154 2.75231 6.99426C2.74914 7.40846 3.08234 7.74681 3.49654 7.74998C3.91074 7.75315 4.24909 7.41994 4.25226 7.00574C4.25952 6.05697 4.29204 5.53952 4.38704 5.17786C4.46654 4.87522 4.59314 4.66836 4.89592 4.38C5.13788 4.14955 5.46814 3.98821 6.04109 3.88798C6.63268 3.78449 7.41071 3.75749 8.50398 3.7517ZM12.5041 2.25172C12.0899 2.24952 11.7523 2.58352 11.7501 2.99773C11.7479 3.41194 12.0819 3.7495 12.4961 3.7517C13.5894 3.7575 14.3674 3.78449 14.9589 3.88799C15.5319 3.98822 15.8621 4.14956 16.1041 4.37999C16.4069 4.66835 16.5335 4.87522 16.613 5.17786C16.708 5.53952 16.7405 6.05697 16.7477 7.00574C16.7509 7.41994 17.0893 7.75315 17.5035 7.74998C17.9177 7.74681 18.2509 7.40846 18.2477 6.99426C18.2406 6.07154 18.2139 5.36833 18.0637 4.79676C17.8981 4.16616 17.5937 3.72721 17.1386 3.29379C16.6121 2.79244 15.9693 2.54196 15.2174 2.41043C14.4842 2.28216 13.5858 2.25746 12.5041 2.25172ZM3.5 9.25005C3.08579 9.25005 2.75 9.58584 2.75 10.0001C2.75 10.4143 3.08579 10.7501 3.5 10.7501H17.5C17.9142 10.7501 18.25 10.4143 18.25 10.0001C18.25 9.58584 17.9142 9.25005 17.5 9.25005H3.5ZM4.25226 12.9944C4.24909 12.5802 3.91074 12.247 3.49654 12.2501C3.08234 12.2533 2.74914 12.5916 2.75231 13.0058C2.75937 13.9286 2.78612 14.6318 2.93626 15.2034C3.10191 15.8339 3.40634 16.2729 3.86144 16.7063C4.38785 17.2077 5.03073 17.4581 5.78258 17.5897C6.51578 17.718 7.41421 17.7427 8.49593 17.7484C8.91014 17.7506 9.24771 17.4166 9.2499 17.0024C9.2521 16.5882 8.9181 16.2506 8.50389 16.2484C7.41065 16.2426 6.63264 16.2156 6.04107 16.1121C5.46814 16.0119 5.13788 15.8506 4.89592 15.6201C4.59314 15.3318 4.46654 15.1249 4.38704 14.8223C4.29204 14.4606 4.25952 13.9431 4.25226 12.9944ZM18.2477 13.0058C18.2509 12.5916 17.9177 12.2533 17.5035 12.2501C17.0893 12.247 16.7509 12.5802 16.7477 12.9944C16.7405 13.9431 16.708 14.4606 16.613 14.8223C16.5335 15.1249 16.4069 15.3318 16.1041 15.6201C15.8621 15.8506 15.5319 16.0119 14.9589 16.1121C14.3674 16.2156 13.5894 16.2426 12.4961 16.2484C12.0819 16.2506 11.7479 16.5882 11.7501 17.0024C11.7523 17.4166 12.0899 17.7506 12.5041 17.7484C13.5858 17.7427 14.4842 17.718 15.2174 17.5897C15.9693 17.4581 16.6121 17.2077 17.1386 16.7063C17.5937 16.2729 17.8981 15.8339 18.0637 15.2034C18.2139 14.6318 18.2406 13.9286 18.2477 13.0058Z" fill="white"/>
</svg>
