<svg width="21" height="24" viewBox="0 0 21 24" fill="none" xmlns="http://www.w3.org/2000/svg">
<g clip-path="url(#clip0_342_3922)">
<path d="M17.2583 1.86808C16.151 0.605932 14.1493 0.0648193 11.5885 0.0648193H4.15644C3.90307 0.0648287 3.65802 0.15522 3.46534 0.319742C3.27266 0.484263 3.14499 0.712123 3.10529 0.962356L0.010716 20.5889C-0.0507939 20.9759 0.248888 21.3264 0.641153 21.3264H5.22944L6.38176 14.0174L6.346 14.2463C6.42809 13.7296 6.86995 13.3486 7.39318 13.3486H9.57352C13.8568 13.3486 17.2107 11.6088 18.1904 6.57605C18.2195 6.4272 18.2447 6.28233 18.2665 6.14079C18.1428 6.07531 18.1428 6.07531 18.2665 6.14079C18.5582 4.28063 18.2645 3.01444 17.2583 1.86808Z" fill="#27346A"/>
<path d="M8.13742 5.4707C8.26286 5.41097 8.40005 5.38002 8.53898 5.3801H14.3656C15.0555 5.3801 15.6991 5.425 16.2872 5.51965C16.4517 5.54589 16.6154 5.57722 16.7781 5.61359C17.0085 5.66445 17.2364 5.7267 17.4607 5.8001C17.7498 5.89666 18.0191 6.00911 18.2665 6.14079C18.5582 4.27992 18.2645 3.01444 17.2583 1.86808C16.1503 0.605932 14.1493 0.0648193 11.5885 0.0648193H4.1558C3.63249 0.0648193 3.1873 0.445799 3.10529 0.962356L0.0107164 20.5882C-0.0507935 20.9758 0.248889 21.3258 0.640518 21.3258H5.22944L7.62015 6.16527C7.64365 6.01625 7.70301 5.87518 7.79312 5.75419C7.88323 5.6332 8.00138 5.53591 8.13742 5.4707Z" fill="#27346A"/>
<path d="M18.1904 6.57607C17.2107 11.6081 13.8569 13.3486 9.5735 13.3486H7.39252C6.86928 13.3486 6.42735 13.7297 6.34605 14.2463L4.91249 23.3341C4.85893 23.6728 5.12086 23.9797 5.46353 23.9797H9.33135C9.55291 23.9797 9.76718 23.9006 9.93563 23.7566C10.1041 23.6127 10.2156 23.4134 10.2503 23.1946L10.2879 22.9975L11.0169 18.3774L11.0639 18.1221C11.0985 17.9032 11.2101 17.7039 11.3785 17.56C11.5469 17.4161 11.7612 17.337 11.9827 17.3369H12.5616C16.3084 17.3369 19.2422 15.8147 20.0995 11.4124C20.4573 9.57265 20.2722 8.03665 19.3255 6.95776C19.0384 6.63098 18.6818 6.3611 18.2664 6.14081C18.2439 6.28306 18.2195 6.42722 18.1904 6.57607Z" fill="#2790C3"/>
<path d="M17.2412 5.73204C17.0884 5.68743 16.9342 5.64794 16.7788 5.61363C16.6161 5.57786 16.4524 5.54674 16.2879 5.52033C15.6992 5.42505 15.0561 5.38007 14.3655 5.38007H8.53966C8.40062 5.37975 8.26333 5.41097 8.1381 5.47138C8.00191 5.53639 7.88362 5.63362 7.79347 5.75465C7.70333 5.87567 7.64404 6.01685 7.62075 6.16595L6.38244 14.0174L6.34668 14.2463C6.42814 13.7297 6.86999 13.3486 7.3933 13.3486H9.57428C13.8576 13.3486 17.2114 11.6089 18.1911 6.5761C18.2202 6.42725 18.2447 6.28301 18.2672 6.14084C18.0191 6.00987 17.7506 5.8967 17.4614 5.80078C17.3884 5.77659 17.315 5.75368 17.2412 5.73204" fill="#1F264F"/>
</g>
<defs>
<clipPath id="clip0_342_3922">
<rect width="20.3444" height="24" fill="white"/>
</clipPath>
</defs>
</svg>
