<svg width="24" height="24" viewBox="0 0 24 24" fill="none" xmlns="http://www.w3.org/2000/svg">
<path d="M7.75009 12C7.75009 11.3096 8.30974 10.75 9.00009 10.75C9.69045 10.75 10.2501 11.3096 10.2501 12C10.2501 12.6904 9.69045 13.25 9.00009 13.25C8.30974 13.25 7.75009 12.6904 7.75009 12Z" fill="white"/>
<path fill-rule="evenodd" clip-rule="evenodd" d="M11.7521 1.77965C10.5459 1.83954 9.44287 2.47636 7.23686 3.75C5.03085 5.02364 3.92785 5.66046 3.27289 6.6751C3.1832 6.81406 3.10045 6.95738 3.02496 7.10454C2.47372 8.17907 2.47372 9.45271 2.47372 12C2.47372 14.5473 2.47372 15.8209 3.02496 16.8954C3.10045 17.0426 3.1832 17.1859 3.27289 17.3249C3.92785 18.3395 5.03085 18.9764 7.23686 20.25C9.44286 21.5236 10.5459 22.1605 11.7521 22.2203C11.9173 22.2285 12.0828 22.2285 12.2479 22.2203C13.4541 22.1605 14.5571 21.5236 16.7631 20.25C18.9691 18.9764 20.0722 18.3395 20.7271 17.3249C20.8168 17.1859 20.8996 17.0426 20.9751 16.8954C21.5263 15.8209 21.5263 14.5473 21.5263 12C21.5263 9.45271 21.5263 8.17907 20.9751 7.10454C20.8996 6.95738 20.8168 6.81406 20.7271 6.6751C20.0722 5.66046 18.9692 5.02364 16.7631 3.75C14.5571 2.47636 13.4541 1.83954 12.2479 1.77965C12.0828 1.77145 11.9173 1.77145 11.7521 1.77965ZM9.00009 9.25C7.48131 9.25 6.25009 10.4812 6.25009 12C6.25009 13.5188 7.48131 14.75 9.00009 14.75C10.2589 14.75 11.3201 13.9043 11.6466 12.75H13.4888C13.5441 13.021 13.5085 13.3061 13.3821 13.559L13.3293 13.6646C13.144 14.0351 13.2942 14.4856 13.6647 14.6708C14.0352 14.8561 14.4857 14.7059 14.6709 14.3354L14.7237 14.2298C14.9556 13.7661 15.0485 13.2532 15.0026 12.75H16.4888C16.5441 13.021 16.5085 13.3061 16.3821 13.559L16.3293 13.6646C16.144 14.0351 16.2942 14.4856 16.6647 14.6708C17.0352 14.8561 17.4857 14.7059 17.6709 14.3354L17.7237 14.2298C18.1108 13.4556 18.1108 12.5444 17.7237 11.7702C17.5643 11.4514 17.2385 11.25 16.8821 11.25H14.0152C14.0047 11.2498 13.9943 11.2498 13.9838 11.25H11.6466C11.3201 10.0957 10.2589 9.25 9.00009 9.25Z" fill="white"/>
</svg>
