<svg width="216" height="199" viewBox="0 0 216 199" fill="none" xmlns="http://www.w3.org/2000/svg">
<path d="M68.4132 103.501C67.7634 98.4508 71.3302 93.8304 76.3799 93.1805C81.4297 92.5307 86.0501 96.0975 86.6999 101.147C87.3498 106.197 83.783 110.817 78.7332 111.467C73.6835 112.117 69.0631 108.55 68.4132 103.501Z" fill="url(#paint0_linear_292_3789)"/>
<path fill-rule="evenodd" clip-rule="evenodd" d="M88.0658 24.9748C79.2993 26.5483 71.8306 32.2447 56.8932 43.6375C41.9559 55.0303 34.4872 60.7268 30.6515 68.7651C30.1262 69.866 29.6559 70.9922 29.2422 72.1397C26.2216 80.5184 27.4205 89.8347 29.8183 108.467C32.2161 127.1 33.415 136.416 38.4585 143.757C39.1493 144.762 39.8895 145.733 40.6764 146.665C46.4223 153.47 55.0898 157.09 72.425 164.33C89.7601 171.569 98.4278 175.189 107.307 174.492C108.523 174.396 109.734 174.241 110.934 174.025C119.701 172.452 127.169 166.755 142.107 155.363C157.044 143.97 164.513 138.273 168.348 130.235C168.874 129.134 169.344 128.008 169.758 126.86C172.778 118.482 171.579 109.165 169.182 90.5327C166.784 71.9002 165.585 62.5839 160.541 55.2429C159.851 54.2376 159.11 53.2671 158.324 52.3351C152.578 45.5298 143.91 41.91 126.575 34.6703C109.24 27.4305 100.572 23.8107 91.693 24.508C90.4769 24.6035 89.2664 24.7593 88.0658 24.9748ZM74.968 82.2085C63.8585 83.6382 56.0115 93.8031 57.4412 104.913C58.8709 116.022 69.0358 123.869 80.1452 122.439C89.3528 121.254 96.3193 114.069 97.6208 105.319L111.096 103.585C111.756 105.515 111.764 107.634 111.077 109.603L110.79 110.425C109.784 113.309 111.306 116.463 114.191 117.469C117.075 118.475 120.229 116.953 121.235 114.069L121.522 113.247C122.781 109.636 122.979 105.797 122.169 102.16L133.04 100.761C133.7 102.691 133.708 104.81 133.021 106.779L132.734 107.601C131.728 110.485 133.25 113.639 136.135 114.645C139.019 115.652 142.173 114.129 143.179 111.245L143.466 110.423C145.569 104.395 144.711 97.7297 141.151 92.431C139.685 90.2492 137.112 89.0829 134.505 89.4184L113.534 92.1171C113.458 92.1253 113.381 92.1351 113.305 92.1466L96.2088 94.3467C92.7343 86.211 84.1755 81.0236 74.968 82.2085Z" fill="url(#paint1_linear_292_3789)"/>
<path fill-rule="evenodd" clip-rule="evenodd" d="M57.4412 104.913C56.0115 93.8031 63.8585 83.6382 74.968 82.2085C84.1755 81.0236 92.7343 86.211 96.2088 94.3467L113.305 92.1466C113.381 92.1351 113.458 92.1253 113.534 92.1171L134.505 89.4184C137.112 89.0829 139.685 90.2492 141.151 92.431C144.711 97.7297 145.569 104.395 143.466 110.423L143.179 111.245C142.173 114.129 139.019 115.652 136.135 114.645C133.25 113.639 131.728 110.485 132.734 107.601L133.021 106.779C133.708 104.81 133.7 102.691 133.04 100.761L122.169 102.16C122.979 105.797 122.781 109.636 121.522 113.247L121.235 114.069C120.229 116.953 117.075 118.475 114.191 117.469C111.306 116.463 109.784 113.309 110.79 110.425L111.077 109.603C111.764 107.634 111.756 105.515 111.096 103.585L97.6208 105.319C96.3193 114.069 89.3528 121.254 80.1452 122.439C69.0358 123.869 58.8709 116.022 57.4412 104.913ZM68.4132 103.501C67.7634 98.4508 71.3302 93.8304 76.3799 93.1805C81.4297 92.5307 86.0501 96.0975 86.6999 101.147C87.3498 106.197 83.783 110.817 78.7332 111.467C73.6835 112.117 69.0631 108.55 68.4132 103.501Z" fill="url(#paint2_linear_292_3789)"/>
<g filter="url(#filter0_b_292_3789)">
<path fill-rule="evenodd" clip-rule="evenodd" d="M145.792 35.658C137.081 33.9253 128.074 36.4924 110.058 41.6267C92.0431 46.7609 83.0354 49.3281 76.547 55.3924C75.6584 56.2229 74.8116 57.097 74.0096 58.0115C68.1538 64.6887 65.8731 73.7731 61.3119 91.942C56.7507 110.111 54.4701 119.195 56.4777 127.847C56.7526 129.031 57.0862 130.202 57.4772 131.354C60.3319 139.763 67.0589 146.281 80.513 159.315C93.967 172.35 100.694 178.867 109.19 181.454C110.354 181.808 111.534 182.105 112.727 182.342C121.438 184.075 130.445 181.508 148.46 176.373C166.476 171.239 175.483 168.672 181.972 162.608C182.861 161.777 183.707 160.903 184.509 159.989C190.365 153.311 192.646 144.227 197.207 126.058C201.768 107.889 204.049 98.8048 202.041 90.1535C201.766 88.9687 201.433 87.7982 201.042 86.6465C198.187 78.2366 191.46 71.7193 178.006 58.6847C164.552 45.6501 157.825 39.1329 149.329 36.5459C148.165 36.1916 146.985 35.8952 145.792 35.658Z" fill="#29ACD6" fill-opacity="0.35"/>
<path d="M145.974 34.7425C141.46 33.8445 136.9 34.0704 131.239 35.1503C125.606 36.2251 118.817 38.1599 109.848 40.7162L109.803 40.729L109.757 40.7419C100.788 43.2982 93.9991 45.2329 88.6454 47.2895C83.266 49.3559 79.2725 51.5675 75.9097 54.7105C74.9985 55.5621 74.1302 56.4584 73.3078 57.3961C70.2729 60.8567 68.1888 64.9183 66.2938 70.3604C64.4078 75.7766 62.689 82.6232 60.418 91.6692L60.4066 91.7147L60.3952 91.7601C58.1242 100.806 56.4054 107.653 55.5095 113.318C54.6094 119.009 54.528 123.574 55.5685 128.058C55.8504 129.272 56.1924 130.473 56.5933 131.654C58.0728 136.012 60.5482 139.848 64.3138 144.21C68.0614 148.552 73.1314 153.463 79.8302 159.953L79.8635 159.986L79.897 160.018C86.5957 166.508 91.6656 171.42 96.1236 175.028C100.603 178.654 104.515 181.006 108.918 182.347C110.111 182.71 111.322 183.014 112.545 183.257C117.059 184.156 121.619 183.93 127.279 182.85C132.913 181.775 139.702 179.84 148.671 177.284L148.716 177.271L148.761 177.258C157.731 174.702 164.52 172.767 169.873 170.711C175.253 168.644 179.246 166.433 182.609 163.29C183.52 162.438 184.389 161.542 185.211 160.604C188.246 157.143 190.33 153.082 192.225 147.64C194.111 142.223 195.83 135.377 198.101 126.331L198.112 126.285L198.124 126.24C200.395 117.194 202.114 110.347 203.009 104.682C203.91 98.9906 203.991 94.4262 202.95 89.9425C202.669 88.7276 202.326 87.5274 201.926 86.3464C200.446 81.9878 197.971 78.1521 194.205 73.7899C190.458 69.4485 185.388 64.5366 178.689 58.0468L178.655 58.0143L178.622 57.9816C171.923 51.4919 166.853 46.5801 162.395 42.9719C157.916 39.3464 154.004 36.9937 149.601 35.653C148.408 35.2897 147.197 34.9858 145.974 34.7425Z" stroke="url(#paint3_linear_292_3789)" stroke-width="1.86678" stroke-linecap="round"/>
</g>
<g filter="url(#filter1_d_292_3789)">
<path fill-rule="evenodd" clip-rule="evenodd" d="M88.2474 98.7041C90.967 87.8711 101.953 81.2939 112.786 84.0135C121.765 86.2675 127.82 94.2002 128.082 103.018L144.752 107.203C144.827 107.22 144.902 107.239 144.976 107.259L165.424 112.392C167.967 113.031 169.93 115.05 170.496 117.61C171.871 123.825 170.239 130.325 166.092 135.154L165.526 135.812C163.542 138.123 160.059 138.387 157.749 136.403C155.438 134.418 155.173 130.936 157.158 128.625L157.723 127.967C159.078 126.389 159.843 124.419 159.933 122.387L149.333 119.726C148.76 123.397 147.178 126.889 144.694 129.782L144.128 130.44C142.144 132.751 138.661 133.016 136.351 131.031C134.04 129.046 133.775 125.564 135.76 123.253L136.326 122.595C137.68 121.017 138.445 119.047 138.535 117.015L125.396 113.717C121 121.365 111.916 125.497 102.938 123.243C92.105 120.523 85.5278 109.537 88.2474 98.7041ZM98.9464 101.39C100.183 96.4659 105.176 93.4763 110.1 94.7125C115.025 95.9487 118.014 100.943 116.778 105.867C115.542 110.791 110.548 113.78 105.624 112.544C100.7 111.308 97.7102 106.314 98.9464 101.39Z" fill="url(#paint4_linear_292_3789)"/>
</g>
<defs>
<filter id="filter0_b_292_3789" x="9.07513" y="-11.5503" width="240.369" height="241.101" filterUnits="userSpaceOnUse" color-interpolation-filters="sRGB">
<feFlood flood-opacity="0" result="BackgroundImageFix"/>
<feGaussianBlur in="BackgroundImageFix" stdDeviation="22.4013"/>
<feComposite in2="SourceAlpha" operator="in" result="effect1_backgroundBlur_292_3789"/>
<feBlend mode="normal" in="SourceGraphic" in2="effect1_backgroundBlur_292_3789" result="shape"/>
</filter>
<filter id="filter1_d_292_3789" x="82.0336" y="77.7997" width="113.208" height="84.2026" filterUnits="userSpaceOnUse" color-interpolation-filters="sRGB">
<feFlood flood-opacity="0" result="BackgroundImageFix"/>
<feColorMatrix in="SourceAlpha" type="matrix" values="0 0 0 0 0 0 0 0 0 0 0 0 0 0 0 0 0 0 127 0" result="hardAlpha"/>
<feOffset dx="9.33389" dy="9.33389"/>
<feGaussianBlur stdDeviation="7.46711"/>
<feColorMatrix type="matrix" values="0 0 0 0 0.176471 0 0 0 0 0.556863 0 0 0 0 0.678431 0 0 0 0.5 0"/>
<feBlend mode="normal" in2="BackgroundImageFix" result="effect1_dropShadow_292_3789"/>
<feBlend mode="normal" in="SourceGraphic" in2="effect1_dropShadow_292_3789" result="shape"/>
</filter>
<linearGradient id="paint0_linear_292_3789" x1="20.1919" y1="33.6637" x2="166.529" y2="21.1976" gradientUnits="userSpaceOnUse">
<stop stop-color="#003DB5"/>
<stop offset="1" stop-color="#4D89FF"/>
</linearGradient>
<linearGradient id="paint1_linear_292_3789" x1="20.1919" y1="33.6637" x2="166.529" y2="21.1976" gradientUnits="userSpaceOnUse">
<stop stop-color="#003DB5"/>
<stop offset="1" stop-color="#4D89FF"/>
</linearGradient>
<linearGradient id="paint2_linear_292_3789" x1="20.1919" y1="33.6637" x2="166.529" y2="21.1976" gradientUnits="userSpaceOnUse">
<stop stop-color="#003DB5"/>
<stop offset="1" stop-color="#4D89FF"/>
</linearGradient>
<linearGradient id="paint3_linear_292_3789" x1="79.6238" y1="19" x2="191.194" y2="191.023" gradientUnits="userSpaceOnUse">
<stop stop-color="white" stop-opacity="0.25"/>
<stop offset="1" stop-color="white" stop-opacity="0"/>
</linearGradient>
<linearGradient id="paint4_linear_292_3789" x1="123.885" y1="137.388" x2="188.123" y2="59.7161" gradientUnits="userSpaceOnUse">
<stop stop-color="white"/>
<stop offset="1" stop-color="white" stop-opacity="0.2"/>
</linearGradient>
</defs>
</svg>
