<svg width="24" height="18" viewBox="0 0 24 18" fill="none" xmlns="http://www.w3.org/2000/svg">
<g clip-path="url(#clip0_342_3959)">
<path d="M2.59228 11.4971C2.59228 12.4135 2.79347 13.1171 3.05634 13.5428C3.40106 14.1003 3.91509 14.3364 4.43925 14.3364C5.11528 14.3364 5.73375 14.1686 6.9255 12.5203C7.88034 11.1992 9.00544 9.34463 9.76237 8.18203L11.0444 6.21234C11.9349 4.84444 12.9656 3.32381 14.1475 2.29303C15.1121 1.45172 16.1529 0.984375 17.2003 0.984375C18.9589 0.984375 20.6339 2.00344 21.9159 3.91472C23.3189 6.00788 24 8.64441 24 11.3652C24 12.9827 23.6812 14.1712 23.1387 15.1102C22.6146 16.0182 21.593 16.9254 19.8745 16.9254V14.3364C21.3459 14.3364 21.7132 12.9844 21.7132 11.437C21.7132 9.23203 21.199 6.78488 20.0665 5.03644C19.2627 3.79613 18.2212 3.03834 17.0753 3.03834C15.8359 3.03834 14.8385 3.97303 13.7176 5.63991C13.1217 6.52538 12.5099 7.60453 11.8231 8.82216L11.0669 10.1618C9.54787 12.855 9.16313 13.4684 8.40366 14.4808C7.07241 16.2536 5.93578 16.9254 4.43925 16.9254C2.66409 16.9254 1.54144 16.1567 0.846281 14.9983C0.278719 14.0543 0 12.8158 0 11.4045L2.59228 11.4971Z" fill="#0081FB"/>
<path d="M2.04395 4.09744C3.23251 2.26556 4.94757 0.984375 6.91473 0.984375C8.05407 0.984375 9.18657 1.32159 10.3692 2.28722C11.6628 3.34294 13.0416 5.08144 14.7617 7.94672L15.3786 8.97488C16.8674 11.4554 17.7145 12.7314 18.2103 13.3333C18.848 14.1061 19.2945 14.3364 19.8745 14.3364C21.3459 14.3364 21.7132 12.9844 21.7132 11.437L24 11.3652C24 12.9827 23.6813 14.1712 23.1387 15.1102C22.6146 16.0182 21.593 16.9254 19.8745 16.9254C18.8063 16.9254 17.8599 16.6934 16.8132 15.706C16.0087 14.9483 15.0681 13.602 14.3444 12.3918L12.1919 8.79628C11.112 6.99188 10.1213 5.64656 9.54798 5.03719C8.93129 4.38206 8.13835 3.59081 6.8731 3.59081C5.84907 3.59081 4.97935 4.3095 4.25157 5.40863L2.04395 4.09744Z" fill="url(#paint0_linear_342_3959)"/>
<path d="M6.873 3.59081C5.84897 3.59081 4.97925 4.3095 4.25147 5.40863C3.22247 6.96187 2.59228 9.27534 2.59228 11.4971C2.59228 12.4135 2.79347 13.1171 3.05634 13.5427L0.846281 14.9983C0.278719 14.0543 0 12.8158 0 11.4045C0 8.838 0.704437 6.16313 2.04394 4.09744C3.2325 2.26556 4.94756 0.984375 6.91472 0.984375L6.873 3.59081Z" fill="url(#paint1_linear_342_3959)"/>
</g>
<defs>
<linearGradient id="paint0_linear_342_3959" x1="306.75" y1="892.632" x2="1957.31" y2="975.996" gradientUnits="userSpaceOnUse">
<stop stop-color="#0064E1"/>
<stop offset="0.4" stop-color="#0064E1"/>
<stop offset="0.83" stop-color="#0073EE"/>
<stop offset="1" stop-color="#0082FB"/>
</linearGradient>
<linearGradient id="paint1_linear_342_3959" x1="375.573" y1="1161.09" x2="375.573" y2="551.83" gradientUnits="userSpaceOnUse">
<stop stop-color="#0082FB"/>
<stop offset="1" stop-color="#0064E0"/>
</linearGradient>
<clipPath id="clip0_342_3959">
<rect width="24" height="16.0312" fill="white" transform="translate(0 0.984375)"/>
</clipPath>
</defs>
</svg>
