<svg width="25" height="24" viewBox="0 0 25 24" fill="none" xmlns="http://www.w3.org/2000/svg">
<path d="M16.704 4.57547L16.7941 4.62747C17.5722 5.07668 18.2211 5.45127 18.6962 5.81792C19.1976 6.20491 19.5957 6.64911 19.7624 7.27129C19.9291 7.89347 19.8065 8.47717 19.5657 9.06306C19.3986 9.46972 19.1528 9.92671 18.8566 10.448L18.2213 10.0704L18.2131 10.0656L11.2878 6.06725L10.6402 5.68554C10.9403 5.17445 11.2107 4.73792 11.4769 4.39297C11.8639 3.89149 12.3081 3.49346 12.9302 3.32675C13.5524 3.16003 14.1361 3.28264 14.722 3.52344C15.2771 3.75157 15.9259 4.12621 16.704 4.57547Z" fill="white"/>
<path d="M9.88878 6.98381L6.41081 13.0077C6.11302 13.5225 5.87756 13.9296 5.79032 14.3926C5.70309 14.8556 5.77428 15.3204 5.86431 15.9083L5.88856 16.0672C6.05475 17.1585 6.19173 18.0581 6.39833 18.7403C6.6144 19.4537 6.94656 20.0712 7.59983 20.4484C8.2531 20.8255 8.95396 20.8044 9.67985 20.6349C10.3739 20.4727 11.2214 20.1415 12.2497 19.7398L12.3994 19.6813C12.9536 19.4654 13.3917 19.2946 13.7491 18.9876C14.1064 18.6805 14.3412 18.2731 14.6381 17.7578L18.1079 11.7479L17.459 11.3622L10.5291 7.36124L9.88878 6.98381Z" fill="white"/>
</svg>
