<svg width="24" height="24" viewBox="0 0 24 24" fill="none" xmlns="http://www.w3.org/2000/svg">
<path d="M16.204 4.57544L16.2941 4.62744C17.0722 5.07665 17.7211 5.45124 18.1962 5.81789C18.6977 6.20488 19.0957 6.64908 19.2624 7.27126C19.4291 7.89344 19.3065 8.47714 19.0657 9.06303C18.8986 9.46969 18.6528 9.92668 18.3567 10.4479L17.7214 10.0703L17.7132 10.0655L10.7879 6.06722L10.1402 5.68551C10.4403 5.17442 10.7107 4.73789 10.9769 4.39294C11.3639 3.89146 11.8081 3.49343 12.4303 3.32672C13.0524 3.16 13.6361 3.28261 14.222 3.52341C14.7771 3.75154 15.4259 4.12618 16.204 4.57544Z" fill="#B3B3B3"/>
<path d="M9.38879 6.98378L5.91082 13.0077C5.61303 13.5225 5.37757 13.9295 5.29034 14.3925C5.2031 14.8556 5.27429 15.3204 5.36432 15.9083L5.38858 16.0672C5.55476 17.1585 5.69174 18.0581 5.89834 18.7402C6.11442 19.4537 6.44657 20.0712 7.09984 20.4484C7.75311 20.8255 8.45398 20.8044 9.17986 20.6348C9.87393 20.4727 10.7215 20.1415 11.7497 19.7398L11.8994 19.6813C12.4536 19.4653 12.8917 19.2946 13.2491 18.9875C13.6064 18.6805 13.8412 18.273 14.1382 17.7577L17.6079 11.7479L16.959 11.3622L10.0291 7.36121L9.38879 6.98378Z" fill="#B3B3B3"/>
</svg>
