<svg width="24" height="24" viewBox="0 0 24 24" fill="none" xmlns="http://www.w3.org/2000/svg">
<path d="M9.56296 1.25C8.02116 1.25 6.77129 2.49987 6.77129 4.04167C6.77129 4.75503 6.19299 5.33333 5.47963 5.33333H5.17076C3.59471 5.33333 2.19079 6.55273 2.2763 8.24648C2.37782 10.2575 2.82447 13.3918 4.45363 16.3608C4.90992 17.1923 5.51931 18.0092 6.17807 18.7703L6.22767 18.8276C7.17534 19.9226 7.9655 20.8356 8.81497 21.4579C9.72865 22.1273 10.7038 22.4607 12.0001 22.4607C13.2964 22.4607 14.2716 22.1273 15.1853 21.4579C16.0348 20.8356 16.8249 19.9226 17.7726 18.8276L17.8222 18.7703C18.4809 18.0092 19.0903 17.1923 19.5466 16.3608C21.23 13.2931 21.6497 9.82667 21.7325 7.66561C21.7971 5.97999 20.4032 4.75 18.8183 4.75H18.229C17.6767 4.75 17.229 4.30228 17.229 3.75C17.229 2.36929 16.1097 1.25 14.729 1.25H9.56296Z" fill="url(#paint0_linear_286_3704)"/>
<defs>
<linearGradient id="paint0_linear_286_3704" x1="2.27258" y1="1.25" x2="22.5971" y2="2.11145" gradientUnits="userSpaceOnUse">
<stop stop-color="#003DB5"/>
<stop offset="1" stop-color="#4D89FF"/>
</linearGradient>
</defs>
</svg>
