<svg width="24" height="24" viewBox="0 0 24 24" fill="none" xmlns="http://www.w3.org/2000/svg">
<g clip-path="url(#clip0_342_3911)">
<rect width="24" height="24" rx="4.98399" fill="white"/>
<g clip-path="url(#clip1_342_3911)">
<path d="M20.4712 20.49H16.9081V14.9099C16.9081 13.5793 16.8844 11.8664 15.055 11.8664C13.1992 11.8664 12.9152 13.3162 12.9152 14.8131V20.4896H9.35217V9.01474H12.7727V10.5829H12.8206C13.1629 9.9976 13.6576 9.51609 14.2519 9.18966C14.8462 8.86324 15.5179 8.70412 16.1955 8.72927C19.8069 8.72927 20.4727 11.1047 20.4727 14.1951L20.4712 20.49ZM5.33169 7.44628C4.18971 7.44647 3.26377 6.52082 3.26359 5.37883C3.2634 4.23685 4.18895 3.31092 5.33094 3.31073C6.47293 3.31045 7.39886 4.2361 7.39905 5.37808C7.39915 5.92649 7.18139 6.45247 6.79369 6.84033C6.40599 7.22819 5.8801 7.44616 5.33169 7.44628ZM7.11329 20.4901H3.54643V9.01474H7.1132L7.11329 20.4901ZM22.2476 0.00162814H1.756C0.787514 -0.00926849 -0.00671869 0.766553 -0.0185547 1.73504V22.3121C-0.00709444 23.2811 0.787045 24.0576 1.75591 24.0475H22.2476C23.2185 24.0595 24.0158 23.2829 24.0292 22.3121V1.73344C24.0154 0.763077 23.218 -0.0126502 22.2476 3.12239e-05" fill="#0A66C2"/>
</g>
</g>
<defs>
<clipPath id="clip0_342_3911">
<rect width="24" height="24" rx="4.98399" fill="white"/>
</clipPath>
<clipPath id="clip1_342_3911">
<rect width="24.0477" height="24.0477" fill="white" transform="translate(-0.0183105)"/>
</clipPath>
</defs>
</svg>
