<svg width="24" height="24" viewBox="0 0 24 24" fill="none" xmlns="http://www.w3.org/2000/svg">
<path d="M22.5026 18.1005L22.5058 18.1026L22.5033 18.1016C22.5027 18.1032 22.5019 18.1049 22.5009 18.1069C22.5012 18.1047 22.5018 18.1025 22.5026 18.1005ZM19.6787 16.7279C20.4528 17.4234 21.3684 17.9406 22.361 18.2448C22.2724 18.3094 22.1329 18.3902 21.9172 18.4784C21.494 18.6513 20.8817 18.8105 20.0778 18.9426L20.0751 18.943C19.7031 19.0063 19.5617 19.3398 19.5128 19.4694C19.4491 19.6381 19.4032 19.8543 19.3608 20.0638L19.3606 20.0649C19.3342 20.197 19.3066 20.3238 19.2744 20.4526C19.19 20.4439 19.1063 20.4298 19.0237 20.4103L19.0237 20.4103L19.017 20.4088C18.5772 20.3114 18.1281 20.2615 17.6776 20.26H17.6759C17.3455 20.26 17.0209 20.2897 16.6975 20.3478L16.6758 20.3518L16.6545 20.3576C15.9533 20.5486 15.3064 20.9006 14.7652 21.3856L14.7652 21.3856L14.7605 21.3899C14.038 22.0543 13.1071 22.4466 12.1273 22.4999C12.0796 22.4997 12.0359 22.4981 12.0062 22.4961L11.9665 22.4934L11.927 22.4971C11.9095 22.4987 11.892 22.4996 11.8745 22.4999C10.8947 22.447 9.96372 22.0547 9.24147 21.39L9.2415 21.39L9.23642 21.3855C8.69514 20.9008 8.04845 20.5489 7.34757 20.3576L7.32592 20.3517L7.30383 20.3478C6.98144 20.2902 6.65465 20.2608 6.32716 20.26V20.2599L6.32031 20.26C5.86994 20.265 5.42145 20.319 4.98274 20.4209L4.98272 20.4209L4.97612 20.4225C4.89358 20.4429 4.81141 20.4581 4.72947 20.4678C4.69712 20.3373 4.66827 20.206 4.64297 20.0739L4.64302 20.0739L4.64162 20.0671C4.59859 19.8581 4.55267 19.6416 4.48983 19.4736C4.44196 19.3457 4.30187 19.0086 3.92767 18.945L3.92464 18.9445C3.12039 18.8129 2.5084 18.6538 2.08562 18.4806C1.88287 18.3976 1.74755 18.321 1.65845 18.2583C3.00335 17.9157 4.20056 17.1097 5.06487 15.968C5.57029 15.3419 5.9879 14.6498 6.30613 13.9107L6.30819 13.906C6.41868 13.6988 6.48844 13.4722 6.51352 13.2385C6.54024 12.9895 6.51569 12.7377 6.44138 12.4986L6.43579 12.4806L6.42886 12.4631C6.2625 12.0424 5.91849 11.7774 5.61519 11.6078C5.31549 11.4402 4.9882 11.3295 4.76293 11.2533L4.74816 11.2483L4.74819 11.2483L4.73859 11.2452C4.64705 11.2163 4.55667 11.1838 4.46767 11.1478C4.27934 11.0685 4.06303 10.9572 3.91176 10.8298C3.83706 10.7669 3.79804 10.7163 3.78072 10.6837C3.7789 10.6802 3.77742 10.6772 3.77621 10.6745C3.8103 10.6093 3.85948 10.5528 3.92 10.5099C3.98741 10.4623 4.06865 10.4383 4.1511 10.4416L4.16635 10.4422L4.1816 10.4419C4.19431 10.4416 4.20692 10.4438 4.21873 10.4483C4.6216 10.6658 5.06809 10.7905 5.52549 10.8131C5.88731 10.8375 6.24449 10.72 6.52123 10.4854L6.71028 10.3251L6.69721 10.0776C6.6848 9.84277 6.67139 9.608 6.65696 9.37329L6.65587 9.35548L6.6535 9.3378C6.45288 7.83513 6.53667 6.30824 6.90039 4.83673C7.30687 3.85137 7.98844 3.00354 8.86397 2.39474C9.71683 1.80402 10.7321 1.49275 11.7695 1.50394L11.7695 1.50404L11.7794 1.50395L12.2224 1.49995L12.2234 1.49994C13.2622 1.48847 14.2789 1.79982 15.1332 2.39099C16.0103 2.9997 16.6935 3.84784 17.1014 4.83391C17.4651 6.30698 17.5482 7.83545 17.3463 9.33946L17.3437 9.3595L17.3426 9.37969L17.3387 9.45388L17.3386 9.45569L17.3037 10.0759L17.2897 10.3243L17.4794 10.4852C17.7367 10.7035 18.0617 10.8198 18.3977 10.8118L18.4122 10.8115L18.4266 10.8103C18.8562 10.7752 19.2744 10.6534 19.6591 10.4487C19.6954 10.4333 19.7346 10.4255 19.7742 10.4259V10.426H19.7799C19.8336 10.426 19.8873 10.4348 19.9407 10.4528L19.9709 10.4729L20.0529 10.4941C20.0965 10.5054 20.1357 10.5298 20.165 10.5641L20.1659 10.5651C20.193 10.5966 20.2131 10.6332 20.2251 10.6727C20.2197 10.6861 20.2055 10.7145 20.1689 10.7559C20.0894 10.8459 19.9117 10.9879 19.5353 11.1473C19.4446 11.1832 19.3528 11.2162 19.2599 11.2463L19.2599 11.2462L19.2543 11.2481L19.2436 11.2517C19.0168 11.3281 18.6872 11.4391 18.3857 11.6079C18.0823 11.7777 17.7392 12.0428 17.5729 12.4631L17.5662 12.4801L17.5608 12.4975C17.486 12.736 17.4609 12.9873 17.4869 13.2359C17.5122 13.477 17.585 13.7106 17.7011 13.9233C18.1414 14.9946 18.8172 15.9531 19.6786 16.7278L19.6787 16.7279ZM1.31136 18.3357L1.31517 18.335L1.31136 18.3357L1.31136 18.3357Z" fill="#FFFF00" stroke="black"/>
</svg>
