<svg width="223" height="200" viewBox="0 0 223 200" fill="none" xmlns="http://www.w3.org/2000/svg">
<g clip-path="url(#clip0_122_4591)">
<path d="M71.4561 22.3106C60.1186 23.7116 52.0634 34.0382 53.4644 45.3757C54.1126 50.6215 50.3856 55.3994 45.1399 56.0477L42.8686 56.3283C31.2792 57.7604 22.0635 68.0029 24.2314 80.3802C26.8053 95.0758 32.9378 117.718 47.6156 138.07C51.7265 143.77 56.9499 149.223 62.4857 154.221L62.9025 154.598C70.8662 161.789 77.5062 167.784 84.3182 171.589C91.6452 175.68 99.1192 177.246 108.651 176.068C118.184 174.89 125.052 171.552 131.162 165.8C136.843 160.452 141.824 153.02 147.798 144.107L148.11 143.641C152.263 137.445 156.002 130.885 158.602 124.355C168.192 100.268 168.129 74.3959 166.774 58.4294C165.717 45.9756 154.349 38.1975 142.695 39.6376L138.362 40.1731C134.3 40.675 130.601 37.7895 130.099 33.7283C128.845 23.5753 119.597 16.3617 109.444 17.6164L71.4561 22.3106Z" fill="url(#paint0_linear_122_4591)"/>
</g>
<g clip-path="url(#clip1_122_4591)">
<g filter="url(#filter0_b_122_4591)">
<path fill-rule="evenodd" clip-rule="evenodd" d="M107.582 54.9029C109.257 45.0163 118.63 38.3596 128.517 40.0348L161.643 45.6478C170.497 47.148 176.458 55.5415 174.958 64.3952C174.358 67.9366 176.742 71.294 180.284 71.8941L184.063 72.5344C194.225 74.2564 201.827 83.6581 199.582 94.3968C196.703 108.164 190.245 129.937 176.118 147.779C172.288 152.615 167.493 157.191 162.442 161.356L162.062 161.669C154.795 167.661 148.736 172.657 142.613 175.725C136.027 179.025 129.411 180.103 121.099 178.695C112.786 177.286 106.895 174.088 101.764 168.803C96.9928 163.89 92.918 157.177 88.0309 149.126L87.7751 148.704C84.3778 143.108 81.3577 137.208 79.3353 131.38C72.1144 110.571 72.6558 89.9877 74.1898 76.9819C75.4818 66.028 85.8092 59.7341 95.9155 61.4466L97.896 61.7822C102.47 62.5573 106.807 59.4773 107.582 54.9029Z" fill="#29ACD6" fill-opacity="0.35"/>
<path d="M128.663 39.1721C118.3 37.4162 108.475 44.3937 106.719 54.7567C106.025 58.8547 102.14 61.6138 98.0422 60.9195L96.0616 60.5839C85.5383 58.8008 74.6801 65.3545 73.3208 76.8795C71.7786 89.9549 71.2278 110.686 78.5086 131.667C80.5578 137.572 83.6101 143.53 87.0272 149.158L87.2829 149.58L87.3265 149.651C92.1782 157.645 96.296 164.428 101.136 169.413C106.402 174.836 112.463 178.119 120.953 179.557C129.442 180.996 136.246 179.893 143.005 176.507C149.217 173.395 155.339 168.347 162.553 162.398L162.618 162.345L162.998 162.031C168.079 157.842 172.924 153.223 176.804 148.322C191.054 130.325 197.548 108.399 200.438 94.5759C202.798 83.2893 194.796 73.4656 184.209 71.6717L180.43 71.0314C177.365 70.512 175.301 67.6064 175.821 64.5413C177.401 55.2112 171.119 46.366 161.789 44.7851L128.663 39.1721Z" stroke="url(#paint1_linear_122_4591)" stroke-width="1.75" stroke-linecap="round"/>
</g>
<g filter="url(#filter1_d_122_4591)">
<path d="M140.533 93.1938C140.983 90.5377 139.195 88.0196 136.538 87.5696C133.882 87.1195 131.364 88.9079 130.914 91.564L128.47 105.992L114.042 103.547C111.386 103.097 108.868 104.886 108.417 107.542C107.967 110.198 109.756 112.716 112.412 113.166L126.84 115.611L124.395 130.038C123.945 132.695 125.733 135.213 128.389 135.663C131.046 136.113 133.564 134.324 134.014 131.668L136.458 117.24L150.886 119.685C153.542 120.135 156.06 118.347 156.51 115.691C156.961 113.034 155.172 110.516 152.516 110.066L138.088 107.622L140.533 93.1938Z" fill="url(#paint2_linear_122_4591)"/>
</g>
</g>
<defs>
<filter id="filter0_b_122_4591" x="47.484" y="14.0265" width="178.246" height="191.022" filterUnits="userSpaceOnUse" color-interpolation-filters="sRGB">
<feFlood flood-opacity="0" result="BackgroundImageFix"/>
<feGaussianBlur in="BackgroundImageFix" stdDeviation="12"/>
<feComposite in2="SourceAlpha" operator="in" result="effect1_backgroundBlur_122_4591"/>
<feBlend mode="normal" in="SourceGraphic" in2="effect1_backgroundBlur_122_4591" result="shape"/>
</filter>
<filter id="filter1_d_122_4591" x="105.348" y="84.5002" width="64.2317" height="64.2317" filterUnits="userSpaceOnUse" color-interpolation-filters="sRGB">
<feFlood flood-opacity="0" result="BackgroundImageFix"/>
<feColorMatrix in="SourceAlpha" type="matrix" values="0 0 0 0 0 0 0 0 0 0 0 0 0 0 0 0 0 0 127 0" result="hardAlpha"/>
<feOffset dx="5" dy="5"/>
<feGaussianBlur stdDeviation="4"/>
<feColorMatrix type="matrix" values="0 0 0 0 0.176471 0 0 0 0 0.556863 0 0 0 0 0.678431 0 0 0 0.5 0"/>
<feBlend mode="normal" in2="BackgroundImageFix" result="effect1_dropShadow_122_4591"/>
<feBlend mode="normal" in="SourceGraphic" in2="effect1_dropShadow_122_4591" result="shape"/>
</filter>
<linearGradient id="paint0_linear_122_4591" x1="17.8466" y1="28.9352" x2="168.085" y2="16.8014" gradientUnits="userSpaceOnUse">
<stop stop-color="#003DB5"/>
<stop offset="1" stop-color="#4D89FF"/>
</linearGradient>
<linearGradient id="paint1_linear_122_4591" x1="81.7678" y1="32.1136" x2="196.279" y2="179.348" gradientUnits="userSpaceOnUse">
<stop stop-color="white" stop-opacity="0.25"/>
<stop offset="1" stop-color="white" stop-opacity="0"/>
</linearGradient>
<linearGradient id="paint2_linear_122_4591" x1="127.058" y1="145.977" x2="204.459" y2="92.1591" gradientUnits="userSpaceOnUse">
<stop stop-color="white"/>
<stop offset="1" stop-color="white" stop-opacity="0.2"/>
</linearGradient>
<clipPath id="clip0_122_4591">
<rect width="177.825" height="177.825" fill="white" transform="translate(0 21.8082) rotate(-7.04439)"/>
</clipPath>
<clipPath id="clip1_122_4591">
<rect width="156.091" height="156.091" fill="white" transform="translate(68.8245 20.0258) rotate(9.61694)"/>
</clipPath>
</defs>
</svg>
