<svg width="40" height="40" viewBox="0 0 40 40" fill="none" xmlns="http://www.w3.org/2000/svg">
<rect width="40" height="40" rx="12" fill="url(#paint0_linear_194_7581)"/>
<path d="M17.563 9.25C16.0212 9.25 14.7713 10.4999 14.7713 12.0417C14.7713 12.755 14.193 13.3333 13.4796 13.3333H13.1708C11.5947 13.3333 10.1908 14.5527 10.2763 16.2465C10.3778 18.2575 10.8245 21.3918 12.4536 24.3608C12.9099 25.1923 13.5193 26.0092 14.1781 26.7703L14.2277 26.8276C15.1753 27.9226 15.9655 28.8356 16.815 29.4579C17.7287 30.1273 18.7038 30.4607 20.0001 30.4607C21.2964 30.4607 22.2716 30.1273 23.1853 29.4579C24.0348 28.8356 24.8249 27.9226 25.7726 26.8276L25.8222 26.7703C26.4809 26.0092 27.0903 25.1923 27.5466 24.3608C29.23 21.2931 29.6497 17.8267 29.7325 15.6656C29.7971 13.98 28.4032 12.75 26.8183 12.75H26.229C25.6767 12.75 25.229 12.3023 25.229 11.75C25.229 10.3693 24.1097 9.25 22.729 9.25H17.563Z" fill="white"/>
<defs>
<linearGradient id="paint0_linear_194_7581" x1="0" y1="0" x2="41.7586" y2="1.92895" gradientUnits="userSpaceOnUse">
<stop stop-color="#003DB5"/>
<stop offset="1" stop-color="#4D89FF"/>
</linearGradient>
</defs>
</svg>
