<svg width="24" height="24" viewBox="0 0 24 24" fill="none" xmlns="http://www.w3.org/2000/svg">
<g clip-path="url(#clip0_342_3851)">
<path d="M4.50471 1.08751C3.74534 1.38282 3.10315 1.77657 2.46096 2.41876C1.81877 3.05626 1.42502 3.70313 1.12971 4.45782C0.843774 5.18907 0.651587 6.02813 0.595337 7.25626C0.539087 8.48438 0.525024 8.87813 0.525024 12.0094C0.525024 15.1406 0.539087 15.5344 0.595337 16.7625C0.651587 17.9906 0.848462 18.8297 1.12971 19.5609C1.42502 20.3203 1.81877 20.9625 2.46096 21.6047C3.10315 22.2469 3.74534 22.6406 4.50471 22.9359C5.23596 23.2219 6.07502 23.4141 7.30315 23.4703C8.53127 23.5266 8.92502 23.5406 12.0563 23.5406C15.1875 23.5406 15.5813 23.5266 16.8094 23.4703C18.0375 23.4141 18.8766 23.2172 19.6078 22.9359C20.3672 22.6406 21.0094 22.2469 21.6516 21.6047C22.2938 20.9625 22.6875 20.3203 22.9828 19.5609C23.2688 18.8297 23.461 17.9906 23.5172 16.7625C23.5735 15.5344 23.5875 15.1406 23.5875 12.0094C23.5875 8.87813 23.5735 8.48438 23.5172 7.25626C23.461 6.02813 23.2641 5.18907 22.9828 4.45782C22.6875 3.70313 22.2938 3.05626 21.6563 2.41876C21.0141 1.77657 20.3719 1.38282 19.6125 1.08751C18.8813 0.801569 18.0422 0.609381 16.8141 0.553131C15.586 0.496881 15.1922 0.482819 12.061 0.482819C8.92971 0.482819 8.53596 0.496881 7.30784 0.553131C6.07502 0.604694 5.23596 0.801569 4.50471 1.08751ZM16.7156 2.62501C17.8406 2.67657 18.45 2.86407 18.8578 3.02344C19.3969 3.23438 19.7813 3.48282 20.1844 3.88594C20.5875 4.28907 20.836 4.67344 21.0469 5.21251C21.2063 5.62032 21.3938 6.22969 21.4453 7.35469C21.5016 8.56876 21.511 8.93438 21.511 12.0141C21.511 15.0938 21.4969 15.4594 21.4453 16.6734C21.3938 17.7984 21.2063 18.4078 21.0469 18.8156C20.836 19.3547 20.5875 19.7391 20.1844 20.1422C19.7813 20.5453 19.3969 20.7938 18.8578 21.0047C18.45 21.1641 17.8406 21.3516 16.7156 21.4031C15.5016 21.4594 15.136 21.4688 12.0563 21.4688C8.97659 21.4688 8.61096 21.4547 7.3969 21.4031C6.2719 21.3516 5.66252 21.1641 5.25471 21.0047C4.71565 20.7938 4.33127 20.5453 3.92815 20.1422C3.52502 19.7391 3.27659 19.3547 3.06565 18.8156C2.90627 18.4078 2.71877 17.7984 2.66721 16.6734C2.61096 15.4594 2.60159 15.0938 2.60159 12.0141C2.60159 8.93438 2.61565 8.56876 2.66721 7.35469C2.71877 6.22969 2.90627 5.62032 3.06565 5.21251C3.27659 4.67344 3.52502 4.28907 3.92815 3.88594C4.33127 3.48282 4.71565 3.23438 5.25471 3.02344C5.66252 2.86407 6.2719 2.67657 7.3969 2.62501C8.61096 2.56876 8.97659 2.55938 12.0563 2.55938C15.136 2.55938 15.5016 2.56876 16.7156 2.62501Z" fill="url(#paint0_radial_342_3851)"/>
<path d="M6.13599 12.0141C6.13599 15.2859 8.78911 17.9344 12.0563 17.9344C15.3235 17.9344 17.9766 15.2812 17.9766 12.0141C17.9766 8.74687 15.3282 6.09375 12.0563 6.09375C8.78442 6.09375 6.13599 8.74219 6.13599 12.0141ZM15.9001 12.0141C15.9001 14.1375 14.1797 15.8578 12.0563 15.8578C9.93286 15.8578 8.21255 14.1375 8.21255 12.0141C8.21255 9.89062 9.93286 8.17031 12.0563 8.17031C14.1797 8.17031 15.9001 9.89062 15.9001 12.0141Z" fill="url(#paint1_radial_342_3851)"/>
<path d="M18.2157 7.24219C18.9794 7.24219 19.5985 6.62308 19.5985 5.85938C19.5985 5.09567 18.9794 4.47656 18.2157 4.47656C17.452 4.47656 16.8329 5.09567 16.8329 5.85938C16.8329 6.62308 17.452 7.24219 18.2157 7.24219Z" fill="#654C9F"/>
</g>
<defs>
<radialGradient id="paint0_radial_342_3851" cx="0" cy="0" r="1" gradientUnits="userSpaceOnUse" gradientTransform="translate(0.944648 21.4296) rotate(-3.00009) scale(33.3428 28.3411)">
<stop stop-color="#FED576"/>
<stop offset="0.2634" stop-color="#F47133"/>
<stop offset="0.6091" stop-color="#BC3081"/>
<stop offset="1" stop-color="#4C63D2"/>
</radialGradient>
<radialGradient id="paint1_radial_342_3851" cx="0" cy="0" r="1" gradientUnits="userSpaceOnUse" gradientTransform="translate(6.35074 16.8486) rotate(-3.00009) scale(17.122 14.5535)">
<stop stop-color="#FED576"/>
<stop offset="0.2634" stop-color="#F47133"/>
<stop offset="0.6091" stop-color="#BC3081"/>
<stop offset="1" stop-color="#4C63D2"/>
</radialGradient>
<clipPath id="clip0_342_3851">
<rect width="24" height="24" fill="white"/>
</clipPath>
</defs>
</svg>
