<svg width="24" height="24" viewBox="0 0 24 24" fill="none" xmlns="http://www.w3.org/2000/svg">
<path d="M10.7501 10C10.7501 9.30964 11.3097 8.75 12.0001 8.75C12.6904 8.75 13.2501 9.30964 13.2501 10C13.2501 10.6904 12.6904 11.25 12.0001 11.25C11.3097 11.25 10.7501 10.6904 10.7501 10Z" fill="#999999"/>
<path fill-rule="evenodd" clip-rule="evenodd" d="M6.77135 4.04167C6.77135 2.49987 8.02123 1.25 9.56302 1.25H14.729C16.1097 1.25 17.229 2.36929 17.229 3.75C17.229 4.30228 17.6767 4.75 18.229 4.75H18.8184C20.4032 4.75 21.7971 5.97999 21.7325 7.66561C21.6498 9.82667 21.23 13.2931 19.5467 16.3608C19.0904 17.1923 18.481 18.0092 17.8222 18.7703L17.7726 18.8276C16.825 19.9226 16.0348 20.8356 15.1854 21.4579C14.2717 22.1273 13.2965 22.4607 12.0002 22.4607C10.7039 22.4607 9.72871 22.1273 8.81503 21.4579C7.96556 20.8356 7.1754 19.9226 6.22773 18.8276L6.17814 18.7703C5.51937 18.0092 4.90998 17.1923 4.45369 16.3608C2.82453 13.3918 2.37788 10.2575 2.27636 8.24648C2.19085 6.55273 3.59477 5.33333 5.17082 5.33333H5.47969C6.19306 5.33333 6.77135 4.75503 6.77135 4.04167ZM12.0001 7.25C10.4813 7.25 9.25006 8.48122 9.25006 10C9.25006 11.2588 10.0958 12.32 11.2501 12.6465V16C11.2501 16.4142 11.5858 16.75 12.0001 16.75C12.4143 16.75 12.7501 16.4142 12.7501 16V12.6465C13.9043 12.32 14.7501 11.2588 14.7501 10C14.7501 8.48122 13.5188 7.25 12.0001 7.25Z" fill="#999999"/>
</svg>
